<svg xmlns="http://www.w3.org/2000/svg" width="24" height="24"><rect width="24" height="24" fill="#00dc82" rx="4"/><path fill="#fff" d="M16.67 13.33q1.38 0 2.36.98.97.97.97 2.36 0 1.38-.97 2.36-.98.97-2.36.97-1.39 0-2.36-.97-.98-.98-.98-2.36l.02-.36-3.75-1.87q-.95.9-2.27.9-1.38 0-2.36-.98Q4 13.39 4 12t.97-2.36q.98-.97 2.36-.97 1.32 0 2.27.9l3.75-1.88-.02-.36q0-1.38.98-2.36.97-.97 2.36-.97 1.38 0 2.36.97.97.98.97 2.36 0 1.39-.97 2.36-.98.98-2.36.98-1.32 0-2.27-.9l-3.75 1.88.02.35-.02.35 3.75 1.88q.95-.9 2.27-.9z"/></svg>