<svg xmlns="http://www.w3.org/2000/svg" width="1488.44" height="165" fill="none">
  <path fill="#00db81" d="M120 0a30.15 30.15 0 0 0-28.87 38.17L51.3 61.43A29.93 29.93 0 0 0 0 82.5a29.92 29.92 0 0 0 51.3 21.08l39.83 23.25A30.1 30.1 0 0 0 120 165a30.1 30.1 0 0 0 29.99-30.01c0-16.5-13.5-30-30-30a29.7 29.7 0 0 0-21.22 8.93l-39.9-23.26a30 30 0 0 0 0-16.35l39.82-23.24A29.93 29.93 0 0 0 150 30c0-16.5-13.5-30-30-30m0 15c8.4 0 15 6.6 15 15s-6.6 15-15 15c-5.32 0-9.97-2.7-12.6-6.82l-.37-.68-.23-.37A15.15 15.15 0 0 1 120 15M30 67.5c5.48 0 10.2 2.85 12.83 7.2l.15.23.22.37a15 15 0 0 1 0 14.4l-.22.38-.15.22A14.9 14.9 0 0 1 30 97.5c-8.4 0-15-6.6-15-15s6.6-15 15-15m90 52.5c8.4 0 15 6.6 15 15s-6.6 15-15 15-15-6.6-15-15q0-3.82 1.65-6.97l.45-.6.45-.9A15 15 0 0 1 120 120" />
  <path fill="#000" d="M234.38 135.97v-105h20.26l48.32 72.45V30.97h20.26v105h-20.26l-48.32-72.3v72.3zm136.15 1.8q-9.15 0-15.75-3.75-6.45-3.9-9.9-11.25-3.46-7.5-3.46-18.45V60.37h20.26v41.85q0 9.15 3.75 13.8 3.9 4.65 11.86 4.65 5.1 0 9-2.25 3.9-2.4 6.15-6.75 2.4-4.5 2.4-10.95V60.37h20.11v75.6h-17.7l-1.66-12.3q-3.3 6.45-9.75 10.35-6.45 3.75-15.3 3.75m56.18-1.8 27.16-37.8-27.16-37.8h21.9l18.16 25.95 18.16-25.95h21.75l-27.16 37.8 27.16 37.8h-21.76l-18.16-26.1-18.16 26.1zm125.8 0q-7.96 0-13.96-2.4-5.86-2.55-9.16-8.25-3.3-5.85-3.3-15.9v-32.1h-12.9V60.37h12.9l2.25-20.55h18v20.55h19.97v16.95h-19.96v32.4q0 5.1 2.25 7.05t7.65 1.95h9.9v17.25zm100.78 1.8q-11.4 0-20.4-3.9-8.86-3.9-14.11-11.4-5.1-7.5-5.26-18.15h21.46q.15 4.65 2.4 8.4t6.16 6q4.05 2.1 9.6 2.1 4.8 0 8.25-1.5 3.6-1.65 5.55-4.5 1.96-2.85 1.96-6.75 0-4.5-2.26-7.5-2.1-3-6-5.1-3.75-2.1-8.85-3.75-4.95-1.8-10.5-3.75-12.46-4.05-19.06-10.8-6.45-6.75-6.45-17.85 0-9.45 4.5-16.2 4.65-6.75 12.75-10.35t18.46-3.6q10.65 0 18.6 3.75 8.1 3.6 12.76 10.5 4.8 6.9 4.95 16.2h-21.6q-.16-3.45-2.1-6.45-1.8-3.15-5.1-4.95-3.31-1.95-7.81-1.95-3.9-.15-7.2 1.2-3.16 1.35-5.1 4.05-1.8 2.55-1.8 6.45 0 3.75 1.8 6.3 1.94 2.55 5.25 4.5 3.3 1.8 7.8 3.45 4.5 1.5 9.75 3.15 7.8 2.7 14.4 6.45 6.61 3.6 10.51 9.45t3.9 15.45q0 8.25-4.35 15.3t-12.6 11.4q-8.1 4.35-20.26 4.35m88.73 0q-10.8 0-19.5-4.95-8.56-5.1-13.66-13.95-4.95-9-4.95-20.55 0-11.85 4.95-20.7 5.1-9 13.8-13.95 8.7-5.1 19.51-5.1 10.96 0 19.51 5.1 8.7 4.95 13.65 13.95 5.1 8.85 5.1 20.55t-5.1 20.7q-4.95 8.85-13.65 13.95-8.7 4.95-19.66 4.95m0-17.55q5.1 0 9-2.4 4.06-2.4 6.3-7.35 2.4-4.95 2.4-12.3t-2.4-12.15q-2.24-4.95-6.3-7.35-3.9-2.55-8.85-2.55-4.8 0-8.85 2.55-4.05 2.4-6.45 7.35-2.25 4.8-2.25 12.15t2.25 12.3q2.4 4.95 6.3 7.35 4.05 2.4 8.85 2.4m91.44 17.55q-11.4 0-20.26-5.1-8.85-5.1-13.8-13.95t-4.96-20.25q0-11.7 4.95-20.55 4.96-9 13.8-14.1 8.86-5.25 20.27-5.25 14.55 0 24.46 7.65t12.6 21h-21.46q-1.35-5.25-5.7-8.25-4.2-3-10.05-3-5.26 0-9.46 2.7-4.05 2.55-6.45 7.65-2.25 4.95-2.25 11.85 0 5.25 1.35 9.45 1.35 4.05 3.75 7.05 2.4 2.85 5.7 4.35 3.45 1.5 7.36 1.5 3.9 0 7.05-1.35 3.3-1.35 5.55-3.75 2.25-2.55 3.15-6.15h21.46q-2.7 13.05-12.75 20.85-9.9 7.65-24.31 7.65m53.92-1.8v-75.6h20.25v75.6zm10.2-85.95q-5.4 0-9-3.15-3.45-3.3-3.45-8.25t3.45-8.1q3.6-3.3 9-3.3 5.55 0 9 3.3 3.6 3.15 3.6 8.1t-3.6 8.25q-3.45 3.15-9 3.15m54.97 87.75q-9.45 0-15.6-3-6.16-3.15-9.16-8.25-2.85-5.25-2.85-11.55 0-6.9 3.45-12.15 3.6-5.25 10.66-8.25 7.2-3 18-3h18.76q0-5.55-1.5-9.15-1.5-3.75-4.65-5.55t-8.4-1.8q-5.7 0-9.76 2.55-3.9 2.4-4.8 7.5h-19.68q.75-8.1 5.25-13.95 4.65-6 12.16-9.3 7.65-3.3 16.95-3.3 10.66 0 18.46 3.6t12 10.35 4.2 16.65v46.8h-17.1l-2.25-11.55q-1.65 3-3.9 5.4t-5.25 4.2-6.76 2.7q-3.75 1.05-8.25 1.05m4.8-15.6q3.9 0 6.9-1.35 3.16-1.5 5.4-3.9 2.26-2.55 3.46-5.7 1.35-3.3 1.8-7.05v-.15h-15.46q-4.65 0-7.65 1.2-2.85 1.05-4.2 3.15t-1.35 4.8q0 3 1.35 4.95t3.9 3 5.85 1.05m56.62 13.8v-108h20.26v108zm109.94 1.8q-11.4 0-20.4-3.9-8.86-3.9-14.1-11.4-5.11-7.5-5.26-18.15h21.46q.15 4.65 2.4 8.4t6.15 6q4.05 2.1 9.6 2.1 4.8 0 8.26-1.5 3.6-1.65 5.55-4.5t1.95-6.75q0-4.5-2.25-7.5-2.1-3-6-5.1-3.75-2.1-8.86-3.75-4.95-1.8-10.5-3.75-12.45-4.05-19.06-10.8-6.45-6.75-6.45-17.85 0-9.45 4.5-16.2 4.65-6.75 12.76-10.35t18.45-3.6q10.66 0 18.61 3.75 8.1 3.6 12.76 10.5 4.8 6.9 4.95 16.2h-21.61q-.15-3.45-2.1-6.45-1.8-3.15-5.1-4.95-3.3-1.95-7.8-1.95-3.9-.15-7.2 1.2-3.16 1.35-5.11 4.05-1.8 2.55-1.8 6.45 0 3.75 1.8 6.3 1.95 2.55 5.25 4.5 3.3 1.8 7.8 3.45 4.5 1.5 9.76 3.15 7.8 2.7 14.4 6.45 6.6 3.6 10.5 9.45t3.9 15.45q0 8.25-4.34 15.3t-12.6 11.4q-8.11 4.35-20.27 4.35m53.02-1.8v-108h20.26v43.65q3.75-5.85 9.9-9.45 6.3-3.6 14.56-3.6 9.45 0 15.9 4.05 6.46 3.9 9.76 11.4t3.3 18.6v43.35h-20.1V94.42q0-9-3.76-13.8-3.75-4.95-11.85-4.95-4.95 0-9 2.4t-6.46 7.05q-2.25 4.5-2.25 10.8v40.05zm117.25 1.8q-9.46 0-15.6-3-6.16-3.15-9.16-8.25-2.85-5.25-2.85-11.55 0-6.9 3.45-12.15 3.6-5.25 10.65-8.25 7.2-3 18-3h18.77q0-5.55-1.5-9.15-1.5-3.75-4.66-5.55-3.15-1.8-8.4-1.8-5.7 0-9.75 2.55-3.9 2.4-4.8 7.5h-19.66q.75-8.1 5.25-13.95 4.65-6 12.15-9.3 7.66-3.3 16.96-3.3 10.65 0 18.46 3.6 7.8 3.6 12 10.35t4.2 16.65v46.8h-17.1l-2.25-11.55q-1.65 3-3.9 5.4t-5.26 4.2-6.75 2.7q-3.75 1.05-8.25 1.05m4.8-15.6q3.9 0 6.9-1.35 3.15-1.5 5.4-3.9 2.25-2.55 3.46-5.7 1.35-3.3 1.8-7.05v-.15h-15.46q-4.65 0-7.65 1.2-2.85 1.05-4.2 3.15t-1.35 4.8q0 3 1.35 4.95t3.9 3 5.85 1.05m56.62 13.8v-75.6h18l1.96 13.95q2.7-4.95 6.75-8.4 4.2-3.45 9.45-5.4 5.4-1.95 11.86-1.95v21.45h-6.9q-4.5 0-8.4 1.05-3.76 1.05-6.61 3.45-2.85 2.25-4.35 6.3t-1.5 10.2v34.95zm95.49 1.8q-11.4 0-20.26-4.8-8.7-4.95-13.66-13.65-4.8-8.85-4.8-20.4 0-11.85 4.8-20.85 4.8-9.15 13.5-14.25 8.86-5.25 20.42-5.25 11.25 0 19.65 4.95t13.06 13.35 4.65 19.05v3.45q0 1.8-.3 3.75h-61.37v-12.3h41.26q-.45-7.35-5.25-11.55-4.65-4.2-11.7-4.2-5.1 0-9.46 2.4-4.35 2.25-6.9 7.05-2.4 4.8-2.4 12.15v4.35q0 6.15 2.25 10.8 2.4 4.5 6.6 7.05 4.2 2.4 9.76 2.4t9.15-2.4q3.75-2.4 5.55-6.15h20.7q-2.1 7.05-7.04 12.75-4.96 5.7-12.16 9t-16.05 3.3" />
</svg>
